<svg width="100" height="101" viewBox="0 0 100 101" fill="none" xmlns="http://www.w3.org/2000/svg">
<path d="M25.0594 25.2438C24.7787 22.2368 25.4736 19.2194 27.0411 16.638C28.6086 14.0566 30.9655 12.0485 33.763 10.9107C36.5605 9.77291 39.65 9.56595 42.5742 10.3204C45.4985 11.0749 48.1022 12.7508 50 15.1M50 86.8938C48.1028 89.0493 45.5213 90.486 42.6896 90.9622C39.8578 91.4384 36.9484 90.9251 34.4505 89.5086C31.9526 88.0921 30.0186 85.8588 28.9737 83.1841C27.9287 80.5094 27.8365 77.5565 28.7125 74.8219" stroke="#2A5A6A" stroke-width="5" stroke-miterlimit="10" stroke-linecap="round" stroke-linejoin="round"/>
<path d="M31.9875 72.3751C31.0345 73.4398 29.8507 74.2726 28.5266 74.8098M28.5266 74.8098C27.2025 75.347 25.7732 75.5744 24.3477 75.4747C22.9223 75.375 21.5385 74.9507 20.3021 74.2344C19.0657 73.518 18.0094 72.5285 17.214 71.3415C16.4185 70.1544 15.9049 68.8012 15.7125 67.3853C15.52 65.9694 15.6537 64.5283 16.1035 63.172C16.5532 61.8157 17.307 60.5801 18.3073 59.5597C19.3076 58.5393 20.5279 57.761 21.875 57.2844M28.5266 74.8098C28.5886 83.2348 32.97 97.4467 50 86.8938M19.2531 58.2469C15.3323 56.4207 12.2442 53.1833 10.6048 49.1808C8.96554 45.1782 8.8956 40.7047 10.409 36.6528C11.9224 32.6009 14.9078 29.2686 18.7696 27.3207C20.7819 26.3057 22.955 25.7055 25.1633 25.5319M31.2438 26.1438C29.2523 25.5733 27.193 25.3724 25.1633 25.5319M62.5 9.95943C60.1522 9.69454 57.7754 10.0268 55.5903 10.9255C53.4051 11.8241 51.4822 13.2601 50 15.1001M50 15.1001C45.9334 11.4188 35.9455 6.26506 28.5266 15.1001C27.0787 16.6816 24.379 20.9822 25.1633 25.5319M50 15.1001V86.8938M50 86.8938C51.8972 89.0494 54.4787 90.4861 57.3105 90.9623C60.1422 91.4385 63.0516 90.9252 65.5495 89.5087C68.0474 88.0922 69.9814 85.8588 71.0264 83.1842C72.0713 80.5095 72.1635 77.5566 71.2875 74.8219" stroke="#2A5A6A" stroke-width="5" stroke-miterlimit="10" stroke-linecap="round" stroke-linejoin="round"/>
<path d="M90.625 19.25H81.25V9.875H71.875V19.25H62.5V28.625H71.875V38H81.25V28.625H90.625V19.25Z" fill="#2FD1CD"/>
<path d="M68.0125 72.375C68.9655 73.4397 70.1493 74.2725 71.4734 74.8097C72.7975 75.3469 74.2268 75.5744 75.6523 75.4746C77.0777 75.3749 78.4615 74.9506 79.6979 74.2343C80.9343 73.5179 81.9906 72.5284 82.786 71.3414C83.5815 70.1544 84.0951 68.8012 84.2875 67.3853C84.48 65.9694 84.3463 64.5282 83.8965 63.1719C83.4468 61.8156 82.693 60.58 81.6927 59.5596C80.6924 58.5392 79.4721 57.761 78.125 57.2844M80.7469 58.2469C84.4378 56.5145 87.3926 53.5264 89.0836 49.8164C90.7747 46.1064 91.0917 41.916 89.9781 37.9938M50 86.4375V15.5M37.5 41.125C38.9969 42.8406 41.35 44.25 43.75 44.25C46.1562 44.25 48.3531 43.3437 50.0125 41.8531M62.5 59.875C61.0531 61.6156 58.6469 63 56.25 63C53.9378 63.0034 51.7065 62.1494 49.9875 60.6031M90.625 19.25H81.25V9.875H71.875V19.25H62.5V28.625H71.875V38H81.25V28.625H90.625V19.25Z" stroke="#2A5A6A" stroke-width="4" stroke-miterlimit="10" stroke-linecap="round" stroke-linejoin="round"/>
</svg>
