<svg width="100" height="101" viewBox="0 0 100 101" fill="none" xmlns="http://www.w3.org/2000/svg">
<path d="M26.0353 32.6251C25.8286 32.6251 25.6195 32.5839 25.4173 32.4969C24.6254 32.1551 24.26 31.2358 24.601 30.4431C25.9247 27.3738 28.0975 24.7378 30.8846 22.8213C31.5987 22.3323 32.5691 22.5123 33.0574 23.2226C33.5465 23.9337 33.3664 24.9072 32.6561 25.3955C30.3535 26.9793 28.5606 29.1522 27.4712 31.6806C27.2163 32.2711 26.6403 32.6251 26.0353 32.6251ZM73.8236 89.3611C71.5729 89.3611 69.3817 88.3983 67.5095 86.526C65.8676 84.8842 65.0543 82.6915 64.2685 80.572C63.7772 79.246 63.3133 77.9933 62.6999 77.0617C61.4624 75.1933 59.4833 74.1198 57.2708 74.1198C55.0583 74.1198 53.0792 75.1933 51.8387 77.0648C51.2276 77.9933 50.7637 79.2453 50.2724 80.5705C49.4865 82.6907 48.674 84.8834 47.0314 86.526C44.2467 89.3092 40.7135 90.0714 37.3367 88.6134C31.1668 85.9515 24.1989 74.7569 24.865 51.9687C24.8901 51.1065 25.5737 50.4313 26.4725 50.4527C27.3346 50.4779 28.0136 51.1973 27.9884 52.0602C27.4078 71.9233 32.8873 83.2904 38.5742 85.744C40.7776 86.6923 42.9375 86.201 44.8219 84.3165C45.9808 83.1569 46.6728 81.2899 47.3419 79.4848C47.8729 78.0528 48.4215 76.5727 49.2317 75.3428C51.0353 72.6191 54.0405 70.9948 57.2708 70.9948C60.5011 70.9948 63.5056 72.6191 65.3076 75.339C66.1194 76.5727 66.6687 78.0536 67.1997 79.4856C67.868 81.2907 68.5593 83.1576 69.7189 84.3165C71.0754 85.6723 73.2819 87.0074 76.1108 85.7028C82.2983 82.8433 88.0936 69.0379 86.1969 45.4837C86.1725 45.1762 86.2396 44.868 86.3892 44.5979C87.648 42.3396 88.2858 39.9669 88.2858 37.5461C88.2858 29.4215 81.6757 22.8114 73.5519 22.8114C67.4591 22.8114 62.0865 26.5048 59.8679 32.2207C59.6466 32.7899 59.1141 33.1782 58.5053 33.2148C57.6752 33.266 56.868 33.266 56.0349 33.2148C55.426 33.1782 54.895 32.7906 54.6738 32.2223C52.5711 26.8252 47.5105 23.1425 41.7824 22.8404C40.921 22.7954 40.2588 22.0599 40.3046 21.1978C40.3503 20.3357 41.1018 19.6727 41.9472 19.72C48.5535 20.0679 54.4251 24.1145 57.1793 30.128C57.2403 30.1288 57.3013 30.1295 57.3593 30.128C60.26 23.7513 66.507 19.6864 73.5519 19.6864C83.4 19.6864 91.4108 27.698 91.4108 37.5461C91.4108 40.3529 90.7166 43.0926 89.3494 45.6958C91.3956 72.2934 84.2209 85.3968 77.4216 88.5394C76.2314 89.0895 75.0198 89.3603 73.8236 89.3611Z" fill="#2A5A6A"/>
<path d="M51.77 57.4427C51.0994 57.4427 50.5035 57.0147 50.2892 56.38C48.6748 51.5925 47.6303 50.5481 42.8429 48.9322C42.2081 48.7185 41.7801 48.1227 41.7801 47.4521C41.7801 46.7814 42.2081 46.1856 42.8429 45.972C47.6303 44.356 48.6748 43.3116 50.2892 38.5241C50.5035 37.8894 51.0994 37.4614 51.77 37.4614C52.4399 37.4614 53.0365 37.8886 53.2501 38.5241C54.8675 43.3116 55.9113 44.356 60.6979 45.972C61.3342 46.1863 61.7615 46.7814 61.7615 47.4521C61.7615 48.1227 61.3342 48.7178 60.6979 48.9322C55.9113 50.5481 54.8675 51.5925 53.2501 56.38C53.0365 57.0155 52.4399 57.4427 51.77 57.4427ZM47.4548 47.4521C49.453 48.5034 50.7194 49.7699 51.77 51.7688C52.8229 49.7699 54.0894 48.5034 56.0867 47.4521C54.0894 46.4007 52.8229 45.1342 51.77 43.1353C50.7194 45.1342 49.453 46.4007 47.4548 47.4521ZM24.6941 58.0745C24.0234 58.0745 23.4283 57.6465 23.214 57.0117C20.3346 48.482 18.1801 46.3275 9.65118 43.4489C9.01642 43.2345 8.58841 42.6394 8.58841 41.9688C8.58841 41.2982 9.01642 40.7031 9.65118 40.4887C18.1801 37.6101 20.3354 35.4548 23.214 26.9259C23.4276 26.2912 24.0234 25.8632 24.6941 25.8632C25.3647 25.8632 25.9598 26.2904 26.1742 26.9259C29.0535 35.4548 31.208 37.6101 39.7369 40.4887C40.3717 40.7031 40.7997 41.2982 40.7997 41.9688C40.7997 42.6394 40.3717 43.2345 39.7369 43.4489C31.2088 46.3275 29.0543 48.482 26.1742 57.0117C25.9598 57.6472 25.3647 58.0745 24.6941 58.0745ZM14.5805 41.9688C19.8204 44.2218 22.4411 46.8425 24.6941 52.0831C26.9478 46.8432 29.5685 44.2218 34.8076 41.9688C29.5685 39.7159 26.9478 37.0952 24.6941 31.8553C22.4411 37.0952 19.8204 39.7159 14.5805 41.9688Z" fill="#18BABA"/>
<path d="M37.442 33.0218C36.7714 33.0218 36.1763 32.5945 35.9619 31.959C34.3452 27.1716 33.3008 26.1271 28.5141 24.5112C27.8793 24.2968 27.4513 23.7017 27.4513 23.0311C27.4513 22.3605 27.8793 21.7654 28.5141 21.551C33.3008 19.9351 34.3452 18.8906 35.9619 14.1032C36.1763 13.4677 36.7714 13.0404 37.442 13.0404C38.1126 13.0404 38.7085 13.4684 38.9221 14.1032C40.538 18.8906 41.5817 19.9351 46.3692 21.551C47.0039 21.7654 47.4319 22.3605 47.4319 23.0311C47.4319 23.7017 47.0039 24.2968 46.3692 24.5112C41.5817 26.1271 40.538 27.1716 38.9221 31.959C38.7085 32.5938 38.1126 33.0218 37.442 33.0218ZM33.1253 23.0311C35.1234 24.0824 36.3907 25.3489 37.442 27.3478C38.4933 25.3489 39.7598 24.0824 41.758 23.0311C39.7598 21.9798 38.4933 20.7133 37.442 18.7144C36.3907 20.7133 35.1234 21.9798 33.1253 23.0311Z" fill="#18BABA"/>
</svg>
