<svg width="32" height="33" viewBox="0 0 32 33" fill="none" xmlns="http://www.w3.org/2000/svg">
<path fill-rule="evenodd" clip-rule="evenodd" d="M15.9317 2.47656L16.0683 2.47656C18.996 2.47655 21.284 2.47654 23.0678 2.71636C24.8911 2.96149 26.32 3.47172 27.4402 4.5919C28.5604 5.71208 29.0706 7.14107 29.3158 8.96429C29.5556 10.7481 29.5556 13.0361 29.5556 15.9638V16.1004C29.5556 19.0281 29.5556 21.3161 29.3158 23.1C29.0706 24.9232 28.5604 26.3522 27.4402 27.4723C26.32 28.5925 24.8911 29.1027 23.0678 29.3479C21.284 29.5877 18.996 29.5877 16.0683 29.5877H15.9317C13.004 29.5877 10.716 29.5877 8.93218 29.3479C7.10896 29.1027 5.67998 28.5925 4.5598 27.4723C3.43962 26.3522 2.92938 24.9232 2.68426 23.1C2.44443 21.3161 2.44444 19.0281 2.44446 16.1004L2.44446 15.9638C2.44444 13.0361 2.44443 10.7481 2.68426 8.96429C2.92938 7.14107 3.43962 5.71208 4.5598 4.5919C5.67998 3.47172 7.10896 2.96149 8.93218 2.71636C10.716 2.47654 13.004 2.47655 15.9317 2.47656ZM9.16907 4.47829C7.54298 4.69691 6.55169 5.11417 5.81688 5.84898C5.08207 6.58379 4.66481 7.57509 4.44618 9.20117C4.22412 10.8528 4.22224 13.0214 4.22224 16.0321C4.22224 19.0428 4.22412 21.2114 4.44618 22.8631C4.66481 24.4892 5.08207 25.4804 5.81688 26.2153C6.55169 26.9501 7.54298 27.3673 9.16907 27.5859C10.8207 27.808 12.9893 27.8099 16 27.8099C19.0107 27.8099 21.1793 27.808 22.831 27.5859C24.457 27.3673 25.4483 26.9501 26.1831 26.2153C26.918 25.4804 27.3352 24.4892 27.5538 22.8631C27.7759 21.2114 27.7778 19.0428 27.7778 16.0321C27.7778 13.0214 27.7759 10.8528 27.5538 9.20117C27.3352 7.57509 26.918 6.58379 26.1831 5.84898C25.4483 5.11417 24.457 4.69691 22.831 4.47829C21.1793 4.25623 19.0107 4.25434 16 4.25434C12.9893 4.25434 10.8207 4.25623 9.16907 4.47829Z" fill="#333333"/>
<path fill-rule="evenodd" clip-rule="evenodd" d="M21.2706 9.81006L22.6667 9.81006C23.1576 9.81006 23.5556 10.208 23.5556 10.6989C23.5556 11.1899 23.1576 11.5878 22.6667 11.5878H21.3333C20.0511 11.5878 19.1789 11.5897 18.5257 11.6775C17.8981 11.7619 17.6074 11.9107 17.4096 12.1085C17.2118 12.3064 17.063 12.5971 16.9786 13.2247C16.8908 13.8778 16.8889 14.7501 16.8889 16.0323V17.8101H20C20.4909 17.8101 20.8889 18.208 20.8889 18.6989C20.8889 19.1899 20.4909 19.5878 20 19.5878H16.8889V28.6989C16.8889 29.1899 16.4909 29.5878 16 29.5878C15.5091 29.5878 15.1111 29.1899 15.1111 28.6989L15.1111 19.5878H13.3333C12.8424 19.5878 12.4445 19.1899 12.4445 18.6989C12.4445 18.208 12.8424 17.8101 13.3333 17.8101H15.1111L15.1111 15.9695C15.1111 14.7659 15.1111 13.7733 15.2167 12.9878C15.3276 12.163 15.5693 11.4347 16.1525 10.8515C16.7357 10.2683 17.4641 10.0265 18.2888 9.91562C19.0744 9.81 20.067 9.81003 21.2706 9.81006Z" fill="#333333"/>
</svg>
