<svg width="100" height="101" viewBox="0 0 100 101" fill="none" xmlns="http://www.w3.org/2000/svg">
<path d="M49.875 45.4844L43.625 60.4687C43.5078 60.7541 43.3087 60.9983 43.0529 61.1707C42.7971 61.3431 42.496 61.436 42.1875 61.4375C41.8843 61.4399 41.5869 61.354 41.3317 61.1903C41.0764 61.0266 40.8743 60.7922 40.75 60.5156L35.5938 48.9375L32.4688 53.0625C32.3232 53.2565 32.1345 53.4141 31.9175 53.5225C31.7006 53.631 31.4613 53.6875 31.2188 53.6875H23.4375C23.0231 53.6875 22.6257 53.5229 22.3326 53.2299C22.0396 52.9368 21.875 52.5394 21.875 52.125C21.875 51.7106 22.0396 51.3132 22.3326 51.0201C22.6257 50.7271 23.0231 50.5625 23.4375 50.5625H30.4688L34.6875 44.9375C34.8512 44.7212 35.0684 44.5513 35.3177 44.4445C35.567 44.3377 35.8399 44.2975 36.1094 44.3281C36.3784 44.358 36.635 44.4572 36.8541 44.6161C37.0733 44.7749 37.2474 44.988 37.3594 45.2344L42.1875 55.9219L48.6094 40.5312C48.7234 40.2531 48.9153 40.0138 49.1619 39.8419C49.4086 39.6701 49.6996 39.5731 50 39.5625C50.3149 39.5733 50.6192 39.679 50.873 39.8658C51.1267 40.0527 51.3181 40.3118 51.4219 40.6094L59.5156 63.5156L65.7656 49.8594C65.8889 49.5852 66.0885 49.3525 66.3407 49.1889C66.5929 49.0254 66.8869 48.9381 67.1875 48.9375H75C75.4144 48.9375 75.8118 49.1021 76.1049 49.3951C76.3979 49.6882 76.5625 50.0856 76.5625 50.5C76.5625 50.9144 76.3979 51.3118 76.1049 51.6049C75.8118 51.8979 75.4144 52.0625 75 52.0625H68.1875L60.7969 68.3281C60.6736 68.6023 60.474 68.835 60.2218 68.9986C59.9696 69.1621 59.6756 69.2494 59.375 69.25C59.0628 69.2361 58.7619 69.129 58.5112 68.9424C58.2605 68.7557 58.0716 68.4982 57.9688 68.2031L49.875 45.4844Z" fill="#2FD1CD"/>
<path fill-rule="evenodd" clip-rule="evenodd" d="M92.1875 34.875C92.1875 34.6719 91.9531 14.5625 71.875 14.5625C58.3906 14.5625 52.4375 23.0156 50 28.4844C47.5625 23.0156 41.6094 14.5625 28.125 14.5625C8.04687 14.5625 7.8125 34.6719 7.8125 34.75C7.8125 34.7573 7.81148 34.7789 7.80981 34.8145C7.72526 36.6108 5.97155 73.8714 49.5 86.3125H49.5781C49.7096 86.3804 49.8527 86.4228 50 86.4375C50.1344 86.4611 50.2719 86.4611 50.4063 86.4375C94.1582 73.8359 92.2637 36.3858 92.1895 34.9182C92.1882 34.8936 92.1875 34.8791 92.1875 34.875ZM28.125 17.6875C11.125 17.6875 10.9375 34.1719 10.9375 34.875C10.8125 36.4375 8.51562 71.1406 50 83.3125C67.4375 78.1562 79.3125 68.5156 85.2813 54.5781C87.9767 48.4129 89.2683 41.7256 89.0625 35C89.0625 34.1719 88.8125 17.6875 71.875 17.6875C67.1461 17.4903 62.5021 18.9872 58.7785 21.9088C55.0548 24.8304 52.4961 28.985 51.5625 33.625C51.5085 33.734 51.4458 33.8385 51.375 33.9375L51.2813 34.1562C51.2123 34.233 51.1393 34.306 51.0625 34.375L50.8594 34.5781C50.7789 34.6164 50.6952 34.6478 50.6094 34.6719C50.513 34.7344 50.4076 34.7819 50.2969 34.8125C50.1985 34.8283 50.0983 34.8283 50 34.8125H49.6563C49.538 34.7751 49.423 34.7281 49.3125 34.6719L49.0938 34.5781C49.0222 34.5144 48.9544 34.4466 48.8906 34.375C48.8139 34.306 48.7408 34.233 48.6719 34.1562C48.6472 34.0857 48.6158 34.0177 48.5781 33.9531C48.5245 33.8361 48.4776 33.7161 48.4375 33.5937C47.4799 28.9683 44.9138 24.8321 41.1948 21.9199C37.4759 19.0077 32.8451 17.5081 28.125 17.6875Z" fill="#2A5A6A"/>
</svg>
