<svg width="32" height="33" viewBox="0 0 32 33" fill="none" xmlns="http://www.w3.org/2000/svg">
<path fill-rule="evenodd" clip-rule="evenodd" d="M9.16844 4.47825C7.54232 4.69684 6.55118 5.11403 5.81655 5.84866C5.08196 6.58325 4.66475 7.57467 4.44615 9.20103C4.22412 10.8529 4.22224 13.0217 4.22224 16.0321C4.22224 19.0432 4.22412 21.212 4.44615 22.8637C4.66473 24.4898 5.08192 25.481 5.81655 26.2156C6.55115 26.9502 7.54256 27.3674 9.16892 27.586C10.8208 27.808 12.9896 27.8099 16 27.8099C19.0111 27.8099 21.1799 27.808 22.8316 27.586C24.4577 27.3674 25.4488 26.9502 26.1835 26.2156C26.9181 25.481 27.3353 24.4896 27.5539 22.8632C27.7759 21.2114 27.7778 19.0426 27.7778 16.0321C27.7778 13.021 27.7759 10.8522 27.5539 9.20054C27.3353 7.57442 26.9181 6.58329 26.1835 5.84866C25.4489 5.11407 24.4575 4.69685 22.8311 4.47825C21.1793 4.25623 19.0105 4.25434 16 4.25434C12.9889 4.25434 10.8201 4.25623 9.16844 4.47825ZM15.9317 2.47656H16.0683C18.9958 2.47655 21.284 2.47654 23.0679 2.71632C24.8912 2.96139 26.3205 3.4715 27.4406 4.59158C28.5606 5.71162 29.0707 7.14049 29.3158 8.9637C29.5556 10.7475 29.5556 13.0357 29.5556 15.9638V16.1004C29.5556 19.0279 29.5556 21.3161 29.3158 23.1C29.0707 24.9233 28.5606 26.3526 27.4406 27.4727C26.3205 28.5927 24.8916 29.1028 23.0684 29.3479C21.2846 29.5877 18.9964 29.5877 16.0683 29.5877H15.9317C13.0042 29.5877 10.7161 29.5877 8.9321 29.3479C7.1088 29.1029 5.67955 28.5927 4.55947 27.4727C3.43944 26.3526 2.9293 24.9238 2.68422 23.1005C2.44443 21.3167 2.44444 19.0286 2.44446 16.1004V15.9639C2.44444 13.0364 2.44443 10.7482 2.68421 8.96421C2.92928 7.1409 3.4394 5.71166 4.55947 4.59158C5.67951 3.47154 7.10838 2.9614 8.93159 2.71632C10.7154 2.47654 13.0036 2.47655 15.9317 2.47656Z" fill="#333333"/>
<path fill-rule="evenodd" clip-rule="evenodd" d="M22.4418 8.69895C22.4418 8.20803 22.8397 7.81006 23.3307 7.81006H23.344C23.8349 7.81006 24.2329 8.20803 24.2329 8.69895C24.2329 9.18987 23.8349 9.58784 23.344 9.58784H23.3307C22.8397 9.58784 22.4418 9.18987 22.4418 8.69895ZM16 10.9212C14.6445 10.9212 13.3444 11.4597 12.3859 12.4182C11.4274 13.3767 10.8889 14.6767 10.8889 16.0323C10.8889 17.3878 11.4274 18.6879 12.3859 19.6464C13.3444 20.6049 14.6445 21.1434 16 21.1434C17.3556 21.1434 18.6556 20.6049 19.6141 19.6464C20.5726 18.6879 21.1111 17.3878 21.1111 16.0323C21.1111 14.6767 20.5726 13.3767 19.6141 12.4182C18.6556 11.4597 17.3556 10.9212 16 10.9212ZM11.1288 11.1611C12.4207 9.86918 14.173 9.14339 16 9.14339C17.8271 9.14339 19.5793 9.86918 20.8712 11.1611C22.1631 12.453 22.8889 14.2052 22.8889 16.0323C22.8889 17.8593 22.1631 19.6115 20.8712 20.9035C19.5793 22.1954 17.8271 22.9212 16 22.9212C14.173 22.9212 12.4207 22.1954 11.1288 20.9035C9.83691 19.6115 9.11111 17.8593 9.11111 16.0323C9.11111 14.2052 9.83691 12.453 11.1288 11.1611Z" fill="#333333"/>
</svg>
