<svg width="104" height="103" viewBox="0 0 104 103" fill="none" xmlns="http://www.w3.org/2000/svg">
<path d="M56.8982 45.4693C60.7227 45.3335 66.0768 47.1797 56.8982 55.6505C53.3155 56.8199 47.2894 59.3362 43.4468 62.4176C51.3766 62.5831 68.9665 61.8686 75.8885 57.6868C84.5408 52.4595 96.0656 42.2112 97.6481 26.3284C99.2306 10.4456 64.9232 0.197298 62.437 26.3284C61.6458 13.9751 54.6827 -7.47346 33.1605 5.55859C27.4898 11.1638 19.5508 28.2269 33.1605 51.6372C40.6205 48.1376 49.2214 45.2975 56.8982 45.4693Z" fill="#2FD1CD"/>
<path d="M3.09254 93.9322C11.0051 102.403 23.5334 102.077 28.8085 100.855C32.7647 84.9727 56.8982 86.6016 60.0633 85.7871C63.2283 84.9726 79.8447 78.0494 86.1748 74.3841C91.2389 71.4519 98.835 61.2163 102 56.465L99.2306 52.4595C100.554 50.514 101.481 48.9362 102 47.9127C99.1515 37.4871 86.0429 50.0847 79.8447 57.6868C72.2487 62.5738 50.0407 66.2391 39.8862 67.4608C40.0997 65.7021 41.4902 63.9866 43.4468 62.4176C47.2894 59.3362 53.3155 56.8199 56.8982 55.6505C66.0768 47.1797 60.7227 45.3335 56.8982 45.4693C49.2214 45.2975 40.6205 48.1376 33.1605 51.6372C26.4726 54.7747 20.7016 58.4422 17.3352 60.9448C0.560506 78.8639 0.850635 90.4027 3.09254 93.9322Z" fill="white"/>
<path d="M60.0633 76.0131C65.1273 76.3389 79.581 70.4473 86.1748 67.4608C92.1319 61.9857 96.5159 56.4493 99.2306 52.4595M99.2306 52.4595C100.554 50.514 101.481 48.9362 102 47.9127C99.1515 37.4871 86.0429 50.0847 79.8447 57.6868C72.2487 62.5738 50.0407 66.2391 39.8862 67.4608C40.0997 65.7021 41.4902 63.9866 43.4468 62.4176M99.2306 52.4595L102 56.465C98.835 61.2163 91.2389 71.4519 86.1748 74.3841C79.8447 78.0494 63.2283 84.9726 60.0633 85.7871C56.8982 86.6016 32.7647 84.9727 28.8085 100.855C23.5334 102.077 11.0051 102.403 3.09254 93.9322C0.850635 90.4027 0.560506 78.8639 17.3352 60.9448C20.7016 58.4422 26.4726 54.7747 33.1605 51.6372M43.4468 62.4176C47.2894 59.3362 53.3155 56.8199 56.8982 55.6505C66.0768 47.1797 60.7227 45.3335 56.8982 45.4693C49.2214 45.2975 40.6205 48.1376 33.1605 51.6372M43.4468 62.4176C51.3766 62.5831 68.9665 61.8686 75.8885 57.6868C84.5408 52.4596 96.0656 42.2112 97.6481 26.3284C99.2306 10.4456 64.9232 0.197298 62.437 26.3284C61.6458 13.9751 54.6827 -7.47346 33.1605 5.55859C27.4898 11.1638 19.5508 28.2269 33.1605 51.6372" stroke="#2A5A6A" stroke-width="3"/>
</svg>
